<?xml version="1.0" encoding="utf-8"?>
<!-- Generator: Adobe Illustrator 27.9.0, SVG Export Plug-In . SVG Version: 6.00 Build 0)  -->
<svg version="1.1" id="Layer_1" xmlns="http://www.w3.org/2000/svg" xmlns:xlink="http://www.w3.org/1999/xlink" x="0px" y="0px"
	 viewBox="0 0 200 200" style="enable-background:new 0 0 200 200;" xml:space="preserve">
<style type="text/css">
	.st0{fill:#FF0000;}
	.st1{fill:#FFFF00;}
	.st2{fill:#00FF00;}
	.st3{fill:#00FFFF;}
	.st4{fill:#0000FF;}
</style>
<path class="st0" d="M190.7,89.9c-4.2-6.1-9.2-10.8-11.4-19.6c-1.5-5.7-0.2-11.8,3.2-16.5c5.7-8,21.5-23.2,2.1-41.2
	C153.5-7,105.7-4,63.6,23.3C9.2,58.8-15,121.9,9.7,164.2s88.9,47.9,143.3,12.5c9.8-6.4,18.7-13.7,26.4-21.6
	c6.8-6.9,12.7-14.3,17.7-21.9c2.1-3.5,2.8-8.2,2.9-13.1C200.1,109.2,196.8,98.7,190.7,89.9z M157.8,124.4
	c-10.1,8.1-22.9,8.4-28.5,0.5c-5.6-7.8-2-20.7,8.1-28.9c10.1-8.1,22.9-8.4,28.5-0.5C171.5,103.4,167.9,116.3,157.8,124.4z"/>
<ellipse transform="matrix(0.9858 -0.1679 0.1679 0.9858 -3.8579 25.3608)" class="st1" cx="148" cy="35.5" rx="18.5" ry="19.9"/>
<ellipse transform="matrix(0.9858 -0.1679 0.1679 0.9858 -6.881 14.8635)" class="st2" cx="84.4" cy="48.1" rx="18.5" ry="19.9"/>
<ellipse transform="matrix(0.9858 -0.1679 0.1679 0.9858 -15.4348 8.2493)" class="st3" cx="41.1" cy="95.4" rx="18.5" ry="19.9"/>
<ellipse transform="matrix(0.9858 -0.1679 0.1679 0.9858 -25.8852 10.5302)" class="st4" cx="49.3" cy="158.3" rx="18.5" ry="19.9"/>
</svg>
